<?xml version="1.0" encoding="UTF-8"?>
<svg version="1.1" xmlns="http://www.w3.org/2000/svg" width="279" height="284">
<path d="M0 0 C-0.84866135 0.97957169 -1.69732269 1.95914337 -2.57170105 2.96839905 C-5.45032107 6.32608001 -8.23209824 9.75198123 -10.99909592 13.20177078 C-21.01688261 25.65231865 -31.50209797 37.67200482 -42.3125 49.4375 C-42.99204963 50.17911157 -42.99204963 50.17911157 -43.68532753 50.93570518 C-65.57749447 74.77275491 -86.51222983 94.83707782 -120.53663063 96.74006462 C-142.772587 97.53961851 -165.13836942 94.84897791 -187 91 C-187 100.57 -187 110.14 -187 120 C-185.68 120.33 -184.36 120.66 -183 121 C-179.90945689 123.86161399 -179.30581381 126.99194339 -178.9296875 131.0390625 C-179.03665812 134.02235429 -180.16420562 135.70525702 -182 138 C-182.51820313 138.43231934 -183.03640625 138.86463867 -183.5703125 139.31005859 C-185.51979104 141.61441147 -185.46782201 143.23449335 -185.625 146.2265625 C-185.69203125 147.25910156 -185.7590625 148.29164063 -185.828125 149.35546875 C-185.88484375 150.43441406 -185.9415625 151.51335937 -186 152.625 C-186.82578026 167.99577345 -186.82578026 167.99577345 -190 174 C-193.70618292 176.47078861 -195.19379107 176.19832144 -199.44140625 175.60546875 C-203.93737063 174.54153825 -208.35045232 172.86750175 -212 170 C-212.90234375 167.46875 -212.90234375 167.46875 -213 165 C-211.0625 162.75 -211.0625 162.75 -209.6640625 161.49609375 C-202.99682416 155.50183956 -198.71782225 149.56471616 -196 141 C-196.825 140.195625 -197.65 139.39125 -198.5 138.5625 C-201.33308526 135.1660171 -201.61587525 132.45850073 -201.3671875 128.12109375 C-200.86591881 125.22546719 -199.84537427 123.27122987 -198 121 C-197.01 120.505 -197.01 120.505 -196 120 C-195.67 110.43 -195.34 100.86 -195 91 C-202.26 91 -209.52 91 -217 91 C-214.96851645 86.9370329 -212.69349458 84.62277776 -209.375 81.6875 C-208.56095703 80.95466797 -208.56095703 80.95466797 -207.73046875 80.20703125 C-204.22641129 77.0608704 -200.68367141 73.95918189 -197.125 70.875 C-194.38176506 68.45449858 -191.69118757 65.97795822 -189 63.5 C-185.04140277 59.8558306 -181.04823168 56.26086221 -176.984375 52.734375 C-172.94625309 49.20499286 -168.98085319 45.59365774 -165 42 C-162.50312008 39.75203023 -160.00546849 37.50491993 -157.5078125 35.2578125 C-155.81407106 33.73291756 -154.12138831 32.20684598 -152.4296875 30.6796875 C-143.2853116 22.43017408 -143.2853116 22.43017408 -139.19824219 18.99609375 C-136.92094207 17.00665856 -136.92094207 17.00665856 -134.85180664 14.53051758 C-127.90253523 7.02813947 -122.59289346 5.67098237 -112.68676758 5.25708008 C-110.91618915 5.21262253 -109.14559949 5.16861063 -107.375 5.125 C-105.49416424 5.04360067 -103.61354401 4.95709053 -101.7331543 4.8659668 C-97.5376744 4.66624338 -93.34193197 4.48947157 -89.14501953 4.32275391 C-81.17075966 3.98522874 -73.20976639 3.47223003 -65.24609375 2.94921875 C-63.79226177 2.85449536 -62.33842468 2.75985031 -60.88458252 2.6652832 C-57.9709038 2.47551118 -55.05725313 2.28531468 -52.14361572 2.09490967 C-14.62175953 -0.35352286 -14.62175953 -0.35352286 0 0 Z " fill="#9C9C9C" transform="translate(217,0)"/>
<path d="M0 0 C27.9353362 14.43268678 46.48463469 38.36140267 56.46606445 67.83984375 C59.41856951 77.44636523 60.08211526 86.5949336 60.06762695 96.6328125 C60.06675079 97.29666962 60.06587463 97.96052673 60.06497192 98.64450073 C59.96902404 120.67632512 53.3182043 135.69014322 39.69262695 153.0078125 C38.29112373 154.82678477 36.89480925 156.6496683 35.49853516 158.47265625 C33.56947428 160.98921166 31.63120723 163.49858542 29.69262695 166.0078125 C25.15439194 165.4551861 22.32543905 163.67725876 18.56762695 161.1328125 C12.6120472 157.1708864 6.51923087 153.5091722 0.31762695 149.9453125 C-0.95878662 149.21175537 -0.95878662 149.21175537 -2.26098633 148.46337891 C-4.27493277 147.30883736 -6.29025431 146.15680009 -8.30737305 145.0078125 C-4.95293012 141.03916584 -1.53673041 137.19036039 2.06762695 133.4453125 C12.04096743 122.30953876 18.6541536 108.82966207 17.97387695 93.5234375 C16.10557074 76.81247634 11.71301803 62.08910349 0.69262695 49.0078125 C0.1615332 48.36457031 -0.36956055 47.72132813 -0.91674805 47.05859375 C-14.58631337 32.00177056 -34.55169291 27.55640442 -53.93237305 26.4453125 C-54.61984619 26.4134082 -55.30731934 26.38150391 -56.015625 26.34863281 C-59.00925179 26.20364128 -61.44450073 25.96210327 -64.30737305 25.0078125 C-62.70722336 19.8873335 -59.60599846 16.13686109 -56.30737305 12.0078125 C-55.58614258 11.04681641 -55.58614258 11.04681641 -54.8503418 10.06640625 C-39.70319358 -8.91546303 -21.1495166 -10.48539414 0 0 Z " fill="#9C9C9C" transform="translate(219.307373046875,83.9921875)"/>
<path d="M0 0 C10.01916884 7.28337409 17.53570636 16.69471445 20 29.14453125 C21.46734155 41.50229834 19.32033591 53.07480349 11.87890625 63.2578125 C3.54284197 73.45299903 -6.51094043 80.03971814 -19.90380859 81.48193359 C-33.88314756 82.43760546 -46.38748808 79.91158696 -57.75 71.25 C-67.27935421 62.58833459 -72.75029275 52.13908278 -73.75 39.25 C-73.88276426 26.47143994 -69.47920631 15.40543243 -60.71484375 6.0859375 C-44.35738719 -9.31949778 -19.14254424 -11.85477359 0 0 Z " fill="#9C9C9C" transform="translate(193.75,141.75)"/>
<path d="M0 0 C-1.60114314 3.41760326 -3.30346747 5.34840119 -6.125 7.875 C-18.75094878 20.29795925 -24.94614436 38.48740244 -25.3125 55.9375 C-25.15936764 73.15638314 -19.00770131 89.47304674 -7 102 C-4.6256743 103.9902979 -2.22188389 105.84408159 0.3125 107.625 C0.869375 108.07875 1.42625 108.5325 2 109 C2 109.66 2 110.32 2 111 C1.03320312 111.4846875 0.06640625 111.969375 -0.9296875 112.46875 C-9.86789639 117.0368099 -17.61386953 122.019389 -25.0234375 128.87109375 C-26.61484941 130.32485188 -28.30041541 131.67432402 -30 133 C-35.92768532 132.38719754 -40.45210689 127.73158723 -44.23828125 123.49609375 C-60.86901551 102.38453989 -70.61065562 72.76910623 -67.78173828 45.92919922 C-66.30570922 34.66312858 -63.99116938 21.19490755 -57 12 C-54.57083294 10.4396379 -52.33541402 9.16626008 -49.75 7.9375 C-49.03183105 7.59460938 -48.31366211 7.25171875 -47.57373047 6.8984375 C-31.6876317 -0.44595974 -17.25384641 -0.50971481 0 0 Z " fill="#9C9C9C" transform="translate(123,122)"/>
<path d="M0 0 C3.49994974 1.27645226 6.83425506 2.79297213 10.15625 4.46875 C10.85459961 4.81897217 11.55294922 5.16919434 12.27246094 5.5300293 C20.66044778 9.84883261 28.13682798 15.29337671 35.65625 20.96875 C35.3914045 24.13218235 34.51082437 25.11558297 32.234375 27.4140625 C17.56908918 39.61088887 0.17201671 46.89734279 -18.34375 50.96875 C-19.3646875 51.21238281 -20.385625 51.45601563 -21.4375 51.70703125 C-49.26884603 57.20596655 -78.36107373 51.87932776 -102.34375 36.96875 C-106.46526018 34.12608755 -110.42413936 31.08325143 -114.34375 27.96875 C-109.94213279 17.9466062 -99.57465173 11.95033038 -90.34375 6.96875 C-89.43625 6.44152344 -88.52875 5.91429687 -87.59375 5.37109375 C-83.23076407 3.24803363 -80.62635933 2.5991846 -75.88671875 3.96484375 C-73.31783787 4.99144176 -70.81277026 6.14389261 -68.296875 7.29296875 C-53.83328692 13.75427928 -34.37979102 13.97332374 -19.34375 9.96875 C-14.04581378 7.83451029 -9.09529377 5.5310838 -4.8125 1.7109375 C-2.34375 -0.03125 -2.34375 -0.03125 0 0 Z " fill="#9C9C9C" transform="translate(208.34375,231.03125)"/>
<path d="M0 0 C8.65348802 4.45727417 15.76386807 11.57580697 18.75610352 20.90454102 C18.55493164 22.9909668 18.55493164 22.9909668 17.75610352 24.90454102 C16.13305664 25.99780273 16.13305664 25.99780273 14.03735352 26.83422852 C12.89266602 27.30977173 12.89266602 27.30977173 11.72485352 27.79492188 C10.91016602 28.11984619 10.09547852 28.44477051 9.25610352 28.77954102 C-7.01887955 35.65985368 -21.29108245 45.9826836 -28.49389648 62.71704102 C-30.67795634 68.61965106 -31.97096466 74.7520372 -33.24389648 80.90454102 C-33.85386475 80.69772705 -34.46383301 80.49091309 -35.09228516 80.27783203 C-37.8709226 79.33771536 -40.6511329 78.40233706 -43.43139648 77.46704102 C-44.87095703 76.97880859 -44.87095703 76.97880859 -46.33959961 76.48071289 C-47.27094727 76.16811523 -48.20229492 75.85551758 -49.16186523 75.53344727 C-50.01546631 75.24542236 -50.86906738 74.95739746 -51.74853516 74.66064453 C-70.58842942 68.95208837 -90.82373164 73.25920875 -107.96826172 81.79345703 C-112.70364429 84.06109651 -112.70364429 84.06109651 -115.57592773 83.22875977 C-121.28027111 78.70001877 -124.19237105 71.9353885 -125.99389648 65.02954102 C-126.23084095 62.06773524 -126.26826962 59.17922079 -126.25952148 56.20922852 C-126.25726563 55.21648926 -126.25500977 54.22375 -126.25268555 53.20092773 C-126.24978516 52.44312012 -126.24688477 51.6853125 -126.24389648 50.90454102 C-125.33982056 50.92754272 -124.43574463 50.95054443 -123.50427246 50.97424316 C-114.91479574 51.17822202 -106.32840202 51.30295597 -97.73653412 51.34238434 C-93.32045551 51.36534704 -88.90893409 51.41714498 -84.49438477 51.53881836 C-62.45647374 53.08814384 -62.45647374 53.08814384 -43.23620605 44.46594238 C-40.7990326 41.78755475 -38.67019398 39.0368698 -36.67683411 36.01512146 C-31.18615674 27.9278774 -23.68119765 21.06231634 -16.82714844 14.13769531 C-15.63593163 12.92972625 -14.45013213 11.71639343 -13.26953125 10.49804688 C-11.55019902 8.72428293 -9.81528655 6.96723725 -8.07592773 5.21313477 C-7.549814 4.66435165 -7.02370026 4.11556854 -6.48164368 3.55015564 C-2.79159589 -0.118759 -2.79159589 -0.118759 0 0 Z " fill="#9C9C9C" transform="translate(180.243896484375,46.095458984375)"/>
</svg>
