<?xml version="1.0" encoding="UTF-8"?>
<svg version="1.1" xmlns="http://www.w3.org/2000/svg" width="801" height="801" className="w-40 flex justify-center items-center" fill="#9c9c9c">
<path d="M0 0 C33.59799486 -0.02286939 67.19598779 -0.04049977 100.7939887 -0.05106533 C104.75702763 -0.05231609 108.72006656 -0.05361041 112.68310547 -0.05493164 C113.47210315 -0.05519395 114.26110083 -0.05545626 115.07400753 -0.05572652 C127.8634481 -0.06008246 140.6528842 -0.06796959 153.44232212 -0.0771528 C166.55725542 -0.08649145 179.67218636 -0.09205606 192.78712285 -0.09408849 C200.88520856 -0.09546328 208.98328163 -0.09981148 217.08136345 -0.10791647 C223.28217926 -0.1138079 229.48298534 -0.11445842 235.68380356 -0.11310768 C238.23402993 -0.11338403 240.78425675 -0.11538939 243.33448029 -0.11920547 C246.8020149 -0.12414204 250.26949428 -0.1229984 253.73703003 -0.12025452 C254.7584147 -0.12316736 255.77979936 -0.1260802 256.83213508 -0.12908131 C257.75573361 -0.12709026 258.67933214 -0.12509921 259.6309185 -0.12304783 C260.4321284 -0.12342755 261.2333383 -0.12380727 262.05882728 -0.1241985 C264 0 264 0 266 1 C266.05787784 4.62493334 266.0935542 8.24974857 266.125 11.875 C266.14175781 12.90753906 266.15851563 13.94007812 266.17578125 15.00390625 C266.18222656 15.99003906 266.18867187 16.97617188 266.1953125 17.9921875 C266.20578613 18.90339355 266.21625977 19.81459961 266.22705078 20.75341797 C266 23 266 23 264 25 C262.06266785 25.22032166 262.06266785 25.22032166 259.66479492 25.17944336 C258.31649849 25.16469215 258.31649849 25.16469215 256.94096375 25.14964294 C255.47551872 25.12004234 255.47551872 25.12004234 253.98046875 25.08984375 C251.90429951 25.06939179 249.82812751 25.04921886 247.75195312 25.02929688 C244.48499122 24.98611472 241.2182095 24.93801202 237.95141602 24.88354492 C222.76787079 24.64834769 209.63759206 24.53792133 196 32 C195.34 32 194.68 32 194 32 C193.34 33.32 192.68 34.64 192 36 C191.34 36 190.68 36 190 36 C189.731875 36.70125 189.46375 37.4025 189.1875 38.125 C187.13774063 43.08757532 184.59430018 47.74335785 182 52.4375 C180.37544808 55.39664715 178.88646208 58.2665673 177.5625 61.375 C175.08988188 67.11147404 172.0038657 72.52720358 169 78 C172.04913228 79.01111093 172.04913228 79.01111093 175 78 C176.35344237 77.95571559 177.7089039 77.96069412 179.0625 78 C180.361875 78 181.66125 78 183 78 C183.33 77.67 183.66 77.34 184 77 C185.73852892 76.9011253 187.48107439 76.87200971 189.22241211 76.87060547 C190.3370433 76.86745331 191.4516745 76.86430115 192.6000824 76.86105347 C193.81357864 76.8630777 195.02707489 76.86510193 196.27734375 76.8671875 C198.13257408 76.86575241 198.13257408 76.86575241 200.02528381 76.86428833 C203.32072686 76.86343103 206.61612322 76.86747135 209.91156006 76.87304688 C211.93381248 76.87499645 213.95602145 76.87305614 215.97827148 76.86962891 C219.84881625 76.86346901 223.71929634 76.8641958 227.58984375 76.8671875 C229.40705177 76.86415115 229.40705177 76.86415115 231.26097107 76.86105347 C232.9376461 76.86578171 232.9376461 76.86578171 234.64819336 76.87060547 C236.12925819 76.87179886 236.12925819 76.87179886 237.64024353 76.87301636 C240 77 240 77 242 78 C243.010625 78 244.02125 78 245.0625 78 C246.031875 78 247.00125 78 248 78 C248.33 78.33 248.66 78.66 249 79 C250.6396875 78.9690625 250.6396875 78.9690625 252.3125 78.9375 C259.73540755 78.83011617 268.37835133 79.88724632 275.1875 83 C278.43129549 84.15334951 281.39782164 84.41925973 284.81640625 84.65625 C287.21379054 85.03365576 288.87672586 85.85156242 291 87 C292.3242287 87.36784131 293.65613912 87.71202981 295 88 C295 88.66 295 89.32 295 90 C296.485 89.505 296.485 89.505 298 89 C300.3659787 89.92010283 302.69855891 90.92863949 305 92 C305.80824219 92.32226562 306.61648438 92.64453125 307.44921875 92.9765625 C318.08487341 97.24385426 329.24519401 103.5390077 338 111 C338 111.66 338 112.32 338 113 C338.99 113 339.98 113 341 113 C342.16559018 114.06274399 343.31792421 115.14407731 344.39453125 116.296875 C347.22847887 119.30320386 350.24273961 122.13446994 353.20703125 125.01171875 C355 127 355 127 355 129 C355.99 129.33 356.98 129.66 358 130 C362 135.37142857 362 135.37142857 362 138 C362.66 138.33 363.32 138.66 364 139 C364.66666667 140.66666667 365.33333333 142.33333333 366 144 C366.66 144.33 367.32 144.66 368 145 C371.53933293 149.6829614 374.53249327 154.6753802 377 160 C377.33 160.66 377.66 161.32 378 162 C377.67 162.66 377.34 163.32 377 164 C377.66 164.33 378.32 164.66 379 165 C380.1875 166.9375 380.1875 166.9375 381 169 C380.67 169.66 380.34 170.32 380 171 C380.99 171.33 381.98 171.66 383 172 C383.6953125 173.890625 383.6953125 173.890625 384.125 176.25 C384.34542969 177.40242188 384.34542969 177.40242188 384.5703125 178.578125 C384.71210937 179.37734375 384.85390625 180.1765625 385 181 C385.16242187 181.80308594 385.32484375 182.60617187 385.4921875 183.43359375 C386.0434895 186.21978925 386.53009695 189.01143731 387 191.8125 C387.165 192.78832031 387.33 193.76414062 387.5 194.76953125 C388.59854803 201.86718139 389.16476172 208.63550875 389.125 215.8125 C389.12161621 216.69397705 389.11823242 217.5754541 389.11474609 218.48364258 C389.03980225 227.93963806 388.24206413 236.80753706 386 246 C385.835 246.86625 385.67 247.7325 385.5 248.625 C383.49926676 258.12848291 380.12935076 267.23626998 376 276 C375.64164063 276.78117187 375.28328125 277.56234375 374.9140625 278.3671875 C369.40822096 289.93314994 361.84783211 300.72457749 353 310 C352.34 310 351.68 310 351 310 C350.67 310.99 350.34 311.98 350 313 C349.34 313 348.68 313 348 313 C348 313.66 348 314.32 348 315 C347.34 315 346.68 315 346 315 C345.69642578 315.83144531 345.69642578 315.83144531 345.38671875 316.6796875 C343.46148995 319.90105625 340.75248036 321.88286552 337.8125 324.125 C337.19246094 324.60364502 336.57242187 325.08229004 335.93359375 325.57543945 C311.00702014 344.58007483 281.8123676 360.24979947 251.30859375 367.98046875 C248.87067861 368.7642698 248.87067861 368.7642698 248.06640625 370.86328125 C247.98959873 373.33467623 248.4836041 374.75691939 249.5 377 C250.91537798 380.12359279 251.11048815 381.72698229 250 385 C250.66 385 251.32 385 252 385 C252.93423645 388.01031744 253.04449911 388.86650268 252 392 C252.66 392 253.32 392 254 392 C254.12117188 392.58007812 254.24234375 393.16015625 254.3671875 393.7578125 C255.14700724 397.39297223 255.95122048 400.86136346 257.1875 404.375 C258 407 258 407 257 410 C257.66 410 258.32 410 259 410 C259.12117188 410.56847656 259.24234375 411.13695312 259.3671875 411.72265625 C260.60075847 417.40657172 262.00768603 422.98561227 263.828125 428.515625 C264.11171875 429.39734375 264.3953125 430.2790625 264.6875 431.1875 C264.95949219 432.00605469 265.23148438 432.82460938 265.51171875 433.66796875 C266.03709509 436.17716614 265.82199309 437.60022152 265 440 C265.66 440 266.32 440 267 440 C267.93423645 443.01031744 268.04449911 443.86650268 267 447 C267.66 447 268.32 447 269 447 C269.12117188 447.58007812 269.24234375 448.16015625 269.3671875 448.7578125 C270.14700724 452.39297223 270.95122048 455.86136346 272.1875 459.375 C273 462 273 462 272 465 C272.66 465 273.32 465 274 465 C274.12117188 465.58007812 274.24234375 466.16015625 274.3671875 466.7578125 C275.3383192 471.28478029 276.47279775 475.62202021 278 480 C278.34472756 481.33043294 278.67735317 482.66404045 279 484 C280.50088113 490.10358326 282.03754243 496.16924245 284.0625 502.125 C286.31868132 509.04395604 286.31868132 509.04395604 285 513 C285.66 513 286.32 513 287 513 C288.14266395 516.8360861 289.16393298 520.64758299 290 524.5625 C290.53981781 527.05654197 291.12892005 529.38676016 291.9375 531.8125 C293.28345647 535.85036942 294.25911214 539.94813913 295.265625 544.08203125 C295.86363724 546.45817564 296.52430416 548.78610191 297.25 551.125 C298 554 298 554 297 556 C297.66 556 298.32 556 299 556 C299.4125 556.99 299.825 557.98 300.25 559 C302.99522515 565.37974858 306.03194978 571.28133939 310 577 C310.44214844 577.68964844 310.88429688 578.37929688 311.33984375 579.08984375 C316.06407355 586.42054516 321.13440298 592.59074174 328 598 C328 598.66 328 599.32 328 600 C328.763125 600.12375 329.52625 600.2475 330.3125 600.375 C333 601 333 601 336 603 C340.03718658 603.87381646 343.97583774 604.15955359 348.09765625 604.28125 C349.79438477 604.33732422 349.79438477 604.33732422 351.52539062 604.39453125 C353.88736632 604.46496012 356.24934551 604.53527224 358.61132812 604.60546875 C359.74119141 604.64285156 360.87105469 604.68023438 362.03515625 604.71875 C363.57248413 604.76418945 363.57248413 604.76418945 365.14086914 604.81054688 C368 605 368 605 373 606 C373 613.26 373 620.52 373 628 C350.73891897 628.04624552 328.47784946 628.08196232 306.21673012 628.10362434 C295.88112379 628.11394854 285.5455478 628.12803065 275.20996094 628.15087891 C266.20424453 628.17077785 257.1985501 628.18370811 248.19281232 628.18817699 C243.42183487 628.19079031 238.65092028 628.19695635 233.87996292 628.21146011 C229.39357249 628.22498888 224.90727109 628.22923223 220.4208622 628.22621536 C218.77043868 628.22676764 217.12001233 628.23077303 215.4696064 628.23841095 C213.22373667 628.24829875 210.97820722 628.24599173 208.73233032 628.24050903 C206.8435765 628.24327441 206.8435765 628.24327441 204.91666603 628.24609566 C202 628 202 628 200 626 C199.39331055 624.22265625 199.39331055 624.22265625 198.88671875 622.0625 C198.69343994 621.25973633 198.50016113 620.45697266 198.30102539 619.62988281 C198.09856201 618.76202148 197.89609863 617.89416016 197.6875 617 C197.24418159 615.16097649 196.79882979 613.3224421 196.3515625 611.484375 C196.12629883 610.55818359 195.90103516 609.63199219 195.66894531 608.67773438 C194.71161084 604.84560136 193.64482516 601.04836508 192.5625 597.25 C190.61365891 590.36506553 188.83921384 583.44689943 187.125 576.5 C184.72605967 566.77953743 182.1668441 557.11037331 179.54003906 547.44921875 C177.52244845 540.00585451 175.61540427 532.54213014 173.77319336 525.05371094 C172.25792926 518.93281689 170.59246763 512.86321886 168.87670898 506.79589844 C167.05025712 500.29198283 165.4203644 493.74576427 163.80688477 487.1862793 C162.61324136 482.36324479 161.33592567 477.58135004 159.9375 472.8125 C158.49525921 467.88244981 157.26188955 462.94364036 156.125 457.9375 C154.63477413 451.38876436 152.88206774 444.94660937 151 438.5 C148.91533013 431.35942159 147.04334853 424.21472548 145.3984375 416.9609375 C144.14022019 411.45623679 142.60546726 406.05811005 141.01171875 400.640625 C139.61974866 395.63168242 138.45062435 390.57844307 137.30664062 385.5078125 C136.45967552 381.65074275 136.45967552 381.65074275 135 378 C119.78477812 374.34282649 101.45860786 377.23600992 86 378 C85.34865075 379.56020867 84.70417036 381.12328579 84.0625 382.6875 C83.70285156 383.55761719 83.34320313 384.42773438 82.97265625 385.32421875 C82.0399482 387.89010233 81.48428096 390.31884451 81 393 C80.35050775 395.33817209 79.68255989 397.67126625 79 400 C78.67 401.175625 78.34 402.35125 78 403.5625 C77.38344929 405.68189308 76.72512784 407.79025747 76 409.875 C74.95216949 413.14947036 74.22000362 416.41138935 73.5 419.76953125 C72.80100587 422.88770039 71.90761146 425.93681133 71 429 C70.67 430.175625 70.34 431.35125 70 432.5625 C69.37789922 434.70097143 68.71772058 436.8291958 68 438.9375 C67.02077144 441.93638746 66.24528551 444.92952987 65.5 447.9921875 C64.74646953 451.0180833 63.87095306 454.00609886 63 457 C62.67 458.155 62.34 459.31 62 460.5 C61.67 461.655 61.34 462.81 61 464 C60.67 465.216875 60.34 466.43375 60 467.6875 C59 471 59 471 57.96557617 472.93164062 C56.8971493 475.22031634 56.67744397 476.89352084 56.55078125 479.40625 C56.48600586 480.64568359 56.48600586 480.64568359 56.41992188 481.91015625 C56.38447266 482.76480469 56.34902344 483.61945313 56.3125 484.5 C56.24192383 485.78197266 56.24192383 485.78197266 56.16992188 487.08984375 C55.88275408 491.63015612 55.88275408 491.63015612 56.55932617 496.08789062 C57 498 57 498 56 501 C56.66 501 57.32 501 58 501 C58.37125 502.010625 58.7425 503.02125 59.125 504.0625 C60.71898458 507.85110103 62.99483886 510.54439071 65.79296875 513.51953125 C67 515 67 515 67 517 C67.70125 517.268125 68.4025 517.53625 69.125 517.8125 C72 519 72 519 74.5234375 520.56640625 C79.2749259 522.52572787 83.42181884 522.28789842 88.5 522.125 C94.17059891 521.99055065 99.40089138 521.97838046 105 523 C108.36391247 523.02767026 111.71183009 522.93679844 115.07421875 522.83984375 C118 523 118 523 121 525 C122.02359205 532.5723799 121.14424381 540.67513792 119 548 C117.45714653 549.54285347 116.03414476 549.12539151 113.88449192 549.12584114 C112.54573154 549.12975276 112.54573154 549.12975276 111.1799255 549.13374341 C110.18811982 549.13151268 109.19631414 549.12928196 108.17445374 549.12698364 C107.12962104 549.12854363 106.08478834 549.13010362 105.00829405 549.13171089 C101.47825299 549.13572584 97.94825433 549.13252932 94.41821289 549.12939453 C91.89917475 549.13074836 89.38013681 549.13252819 86.86109924 549.13470459 C80.71167545 549.13880518 74.56226756 549.13818547 68.41284353 549.13529195 C63.41669669 549.13303798 58.42055326 549.13272537 53.42440605 549.13381577 C52.71462651 549.133969 52.00484697 549.13412223 51.27355896 549.13428011 C49.83185995 549.13459982 48.39016095 549.13492403 46.94846194 549.1352527 C33.41321706 549.13810775 19.87797894 549.13482019 6.34273516 549.12945233 C-5.28119752 549.12498523 -16.90512023 549.1257594 -28.52905273 549.13037109 C-42.01272244 549.13571808 -55.49638621 549.13783204 -68.98005682 549.13475883 C-70.41690131 549.13444027 -71.8537458 549.1341259 -73.29059029 549.13381577 C-73.9976261 549.13366149 -74.70466192 549.13350721 -75.43312306 549.13334826 C-80.42506645 549.13248341 -85.41700609 549.13394533 -90.4089489 549.13629532 C-97.123743 549.13938672 -103.83851527 549.13719751 -110.55330849 549.13140106 C-113.02451928 549.13007365 -115.49573166 549.13046726 -117.96694183 549.13266373 C-121.32713977 549.13537598 -124.68727613 549.13199311 -128.04747009 549.12698364 C-129.03704505 549.12921436 -130.02662001 549.13144509 -131.0461821 549.13374341 C-131.94129676 549.13113566 -132.83641143 549.12852791 -133.75865078 549.12584114 C-134.5350165 549.12567879 -135.31138223 549.12551644 -136.11127418 549.12534916 C-138 549 -138 549 -140 548 C-140.0289337 544.20834926 -140.04677601 540.41672673 -140.0625 536.625 C-140.07087891 535.54476562 -140.07925781 534.46453125 -140.08789062 533.3515625 C-140.09111328 532.3203125 -140.09433594 531.2890625 -140.09765625 530.2265625 C-140.10289307 529.27346191 -140.10812988 528.32036133 -140.11352539 527.33837891 C-140 525 -140 525 -139 523 C-138.22285645 523.00523682 -137.44571289 523.01047363 -136.64501953 523.01586914 C-133.13835451 523.03660156 -129.63170237 523.04964821 -126.125 523.0625 C-124.90167969 523.07087891 -123.67835938 523.07925781 -122.41796875 523.08789062 C-121.25136719 523.09111328 -120.08476562 523.09433594 -118.8828125 523.09765625 C-117.80402832 523.10289307 -116.72524414 523.10812988 -115.61376953 523.11352539 C-113.01767814 523.17883106 -113.01767814 523.17883106 -111 522 C-108.85595831 521.90293287 -106.70873249 521.87021464 -104.5625 521.875 C-103.40878906 521.87242187 -102.25507813 521.86984375 -101.06640625 521.8671875 C-98 522 -98 522 -95 523 C-95 522.34 -95 521.68 -95 521 C-94.21625 520.79375 -93.4325 520.5875 -92.625 520.375 C-84.75906904 517.39137101 -78.75475626 513.04249407 -73 507 C-72.34 507 -71.68 507 -71 507 C-70.34 505.35 -69.68 503.7 -69 502 C-68.34 502 -67.68 502 -67 502 C-66.67 500.35 -66.34 498.7 -66 497 C-65.34 497 -64.68 497 -64 497 C-63.88785156 496.4740625 -63.77570313 495.948125 -63.66015625 495.40625 C-62.81683663 492.33237493 -61.61886084 489.46144951 -60.4375 486.5 C-55.72577236 474.29413174 -52.48619363 461.59552337 -49 449 C-48.51875412 447.27589505 -48.03704618 445.55191895 -47.5546875 443.828125 C-46.74498797 440.92974763 -45.94027304 438.03007246 -45.140625 435.12890625 C-44.36695977 432.32204346 -43.58517853 429.51763033 -42.796875 426.71484375 C-40.43814979 418.31170947 -38.18110311 409.8885808 -36 401.4375 C-34.11613312 394.14645824 -32.13246749 386.90475055 -29.96264648 379.6940918 C-28.0375466 373.24595644 -26.29793401 366.75140203 -24.5625 360.25 C-22.19505572 351.38474495 -19.76900652 342.54152604 -17.21704102 333.72753906 C-13.57298821 321.12849177 -10.12526541 308.47337142 -6.66015625 295.82421875 C-6.22165344 294.22358078 -6.22165344 294.22358078 -5.77429199 292.59060669 C-4.56867026 288.18892289 -3.3632149 283.78719462 -2.15942383 279.38500977 C1.38351051 266.43142649 4.97108958 253.49342164 8.68554688 240.58789062 C10.6355834 233.80594594 12.5115836 227.00340698 14.39111328 220.20166016 C15.21611608 217.21855058 16.0446548 214.23642869 16.87353516 211.25439453 C17.28897636 209.75938904 17.70401974 208.26427293 18.11865234 206.76904297 C19.19040165 202.90517135 20.26819899 199.043129 21.35546875 195.18359375 C21.57847656 194.38888672 21.80148437 193.59417969 22.03125 192.77539062 C22.45245816 191.27483655 22.87547763 189.77478906 23.30078125 188.27539062 C24.52625693 183.90044246 25.58004947 179.51642407 26.50952148 175.06884766 C27.00790754 172.96664587 27.65238668 170.97248748 28.375 168.9375 C29.81363633 164.78786555 30.89680062 160.57568489 31.9375 156.3125 C33.46654347 150.05745437 35.14228888 143.86475081 36.9375 137.6796875 C38.13171361 133.54384477 39.28847867 129.39857642 40.4375 125.25 C40.64753662 124.49219238 40.85757324 123.73438477 41.07397461 122.95361328 C41.50242693 121.40726764 41.93073014 119.86088068 42.35888672 118.31445312 C43.40376964 114.54237008 44.45204751 110.77123116 45.5 107 C45.91407082 105.5091169 46.3281333 104.01823147 46.7421875 102.52734375 C47.81943048 98.64910044 48.89798137 94.77122225 49.97729492 90.89355469 C50.40574902 89.35157213 50.83301442 87.80925873 51.2590332 86.26660156 C52.12174323 83.14336416 52.99243637 80.02561245 53.91015625 76.91796875 C57.67538593 63.99509501 61.26442106 47.38607817 54.84765625 34.7265625 C51.22326418 29.32511393 47.10551949 27.08603201 41 25 C37.70719214 24.46303515 34.48437364 24.39543919 31.15234375 24.390625 C29.80638878 24.36582062 29.80638878 24.36582062 28.4332428 24.34051514 C25.6012564 24.29239943 22.76980544 24.27074596 19.9375 24.25 C18.00322879 24.22180977 16.06898214 24.19187812 14.13476562 24.16015625 C9.42322125 24.08665072 4.71196779 24.03685444 0 24 C-1.18807993 21.62384014 -1.12914522 20.1488258 -1.1328125 17.5 C-1.13410156 16.613125 -1.13539063 15.72625 -1.13671875 14.8125 C-1.13285156 13.884375 -1.12898437 12.95625 -1.125 12 C-1.12886719 11.071875 -1.13273438 10.14375 -1.13671875 9.1875 C-1.13478516 7.8571875 -1.13478516 7.8571875 -1.1328125 6.5 C-1.13168457 5.6853125 -1.13055664 4.870625 -1.12939453 4.03125 C-1 2 -1 2 0 0 Z M162 112 C161.52060413 113.25853236 161.04311362 114.51779059 160.56640625 115.77734375 C160.30029541 116.47851318 160.03418457 117.17968262 159.76000977 117.90209961 C158.67672323 120.89236019 157.83655418 123.93263467 157 127 C155.66666667 131.66666667 154.33333333 136.33333333 153 141 C152.67 142.175625 152.34 143.35125 152 144.5625 C151.39629868 146.63772328 150.75987943 148.70435368 150.0625 150.75 C149.11349642 153.65283447 148.29285237 156.55170475 147.5 159.5 C146.45414221 163.38536169 145.29694273 167.19023072 144 171 C142.61956532 175.4864127 141.28952661 179.98665685 140 184.5 C138.96118593 188.13584924 137.87652201 191.75584032 136.78125 195.375 C135.82850896 198.57620991 134.91390314 201.78749201 134 205 C132.66666667 209.66666667 131.33333333 214.33333333 130 219 C129.649375 220.23621094 129.29875 221.47242188 128.9375 222.74609375 C127.7585049 226.83818926 126.39877222 230.85352986 125 234.875 C124.04904981 237.84671934 123.29969552 240.83196734 122.56640625 243.86328125 C121.96963956 246.11453214 121.2545988 248.29687485 120.5 250.5 C119.53557313 253.31612645 118.68942325 256.10442235 118 259 C117.12419505 262.67838081 115.94311293 266.20611025 114.71875 269.78125 C114.0506998 271.84349193 113.50188763 273.89207195 113 276 C112.12419505 279.67838081 110.94311293 283.20611025 109.71875 286.78125 C109.0506998 288.84349193 108.50188763 290.89207195 108 293 C107.13356994 296.62325299 105.99424589 300.10825317 104.79296875 303.6328125 C102.87253292 309.36573915 101.1819442 315.07090286 100 321 C99.44231648 322.67305057 98.88282114 324.34551025 98.31640625 326.015625 C96.75345328 330.64779651 95.30884775 335.28814811 94 340 C92.11111111 346.77777778 92.11111111 346.77777778 91 349 C93.58296017 349.19522373 96.16604079 349.38144403 98.75 349.5625 C99.47960937 349.61857422 100.20921875 349.67464844 100.9609375 349.73242188 C104.98152761 350.05212026 104.98152761 350.05212026 108.94732666 349.51168823 C111.28916559 348.92791711 113.32107072 348.90091749 115.73339844 348.93408203 C117.13570709 348.94871994 117.13570709 348.94871994 118.56634521 348.96365356 C119.57054504 348.97822601 120.57474487 348.99279846 121.609375 349.0078125 C123.74739103 349.02533519 125.88541218 349.04224285 128.0234375 349.05859375 C131.38523568 349.08949443 134.7467769 349.12495548 138.10839844 349.17138672 C141.3587558 349.21391565 144.60881429 349.23722346 147.859375 349.2578125 C148.85547791 349.27643341 149.85158081 349.29505432 150.87786865 349.3142395 C158.46524703 349.34190123 164.23405778 347.83386996 170.84375 343.95703125 C171.44960938 343.60576172 172.05546875 343.25449219 172.6796875 342.89257812 C173.28039062 342.53615234 173.88109375 342.17972656 174.5 341.8125 C175.13164062 341.44447266 175.76328125 341.07644531 176.4140625 340.69726562 C177.94592958 339.80367649 179.47344762 338.90263842 181 338 C181 337.34 181 336.68 181 336 C181.58136719 335.72800781 182.16273438 335.45601562 182.76171875 335.17578125 C184.97896152 334.01105163 186.83230816 332.71599838 188.8125 331.1875 C191.39948038 329.20639235 194.0056703 327.28784538 196.6875 325.4375 C199.78700266 323.23762623 202.37764272 320.76037608 205 318 C205.804375 317.21625 206.60875 316.4325 207.4375 315.625 C209.88273637 313.12012372 212.14077022 310.53498132 214.375 307.84375 C215.65490184 306.39155369 217.01398208 305.00913803 218.3984375 303.65625 C221.08068141 300.91762258 223.3411526 298.07652296 225.625 295 C226.38039063 293.989375 227.13578125 292.97875 227.9140625 291.9375 C231.53481427 287.37355878 231.53481427 287.37355878 233 282 C233.66 282 234.32 282 235 282 C236.41853215 279.0217182 237.83447122 276.04221028 239.25 273.0625 C239.64574219 272.23169922 240.04148437 271.40089844 240.44921875 270.54492188 C241.64125013 268.03383939 242.82077641 265.51711719 244 263 C244.34973877 262.27546631 244.69947754 261.55093262 245.05981445 260.80444336 C247.99280514 254.54507273 249.86559825 248.09399072 251.6875 241.4375 C252.14866211 239.81038086 252.14866211 239.81038086 252.61914062 238.15039062 C254.02069916 233.09925953 255.16612167 228.25345663 255.76496887 223.03282166 C255.98562334 221.124346 256.25010318 219.22108213 256.51757812 217.31860352 C257.76219681 208.22708991 258.43044143 199.26746249 258.48046875 190.09057617 C258.50003895 187.93320639 258.56248574 185.77954466 258.625 183.62304688 C258.78140164 173.1682616 256.54147543 165.43393806 252 156 C251.52280518 154.98583008 251.04561035 153.97166016 250.55395508 152.92675781 C242.32852759 136.01974344 227.42008845 123.69867979 210 117 C204.74866591 115.32103518 199.39369754 114.12092485 194 113 C193.23478027 112.82202881 192.46956055 112.64405762 191.68115234 112.46069336 C188.60888883 111.93279669 185.72267745 111.88757025 182.60546875 111.90234375 C180.80239258 111.90717773 180.80239258 111.90717773 178.96289062 111.91210938 C177.71701172 111.92048828 176.47113281 111.92886719 175.1875 111.9375 C173.92228516 111.94201172 172.65707031 111.94652344 171.35351562 111.95117188 C168.2356289 111.96293749 165.11783867 111.97937728 162 112 Z " fill="#9c9c9c" transform="translate(258,86)"/>
</svg>
